REM DIRINDEX 1\2,1\3,1\4
REM DIRNAME cjc151,folder01,folder02,folder03
TITLE ""
FILE "017 017_TOEFL_3900.mp3" MP3
  TRACK 01 AUDIO
    TITLE "2:cjc151_0710"
    INDEX 01 00:00:00
  TRACK 02 AUDIO
    TITLE "0:"
    INDEX 01 00:01:21
  TRACK 03 AUDIO
    TITLE "3:cjc151_0711"
    INDEX 01 00:03:02
  TRACK 04 AUDIO
    TITLE "0:"
    INDEX 01 00:06:49
  TRACK 05 AUDIO
    TITLE "2:cjc151_0712"
    INDEX 01 00:08:26
  TRACK 06 AUDIO
    TITLE "0:"
    INDEX 01 00:09:28
  TRACK 07 AUDIO
    TITLE "3:cjc151_0713"
    INDEX 01 00:11:05
  TRACK 08 AUDIO
    TITLE "0:"
    INDEX 01 00:14:25
  TRACK 09 AUDIO
    TITLE "2:cjc151_0714"
    INDEX 01 00:16:06
  TRACK 10 AUDIO
    TITLE "0:"
    INDEX 01 00:17:08
  TRACK 11 AUDIO
    TITLE "3:cjc151_0715"
    INDEX 01 00:18:62
  TRACK 12 AUDIO
    TITLE "0:"
    INDEX 01 00:22:46
  TRACK 13 AUDIO
    TITLE "2:cjc151_0716"
    INDEX 01 00:24:27
  TRACK 14 AUDIO
    TITLE "0:"
    INDEX 01 00:25:41
  TRACK 15 AUDIO
    TITLE "3:cjc151_0717"
    INDEX 01 00:27:20
  TRACK 16 AUDIO
    TITLE "0:"
    INDEX 01 00:31:45
  TRACK 17 AUDIO
    TITLE "2:cjc151_0718"
    INDEX 01 00:33:24
  TRACK 18 AUDIO
    TITLE "0:"
    INDEX 01 00:34:26
  TRACK 19 AUDIO
    TITLE "3:cjc151_0719"
    INDEX 01 00:36:07
  TRACK 20 AUDIO
    TITLE "0:"
    INDEX 01 00:39:60
  TRACK 21 AUDIO
    TITLE "2:cjc151_0720"
    INDEX 01 00:41:40
  TRACK 22 AUDIO
    TITLE "0:"
    INDEX 01 00:42:55
  TRACK 23 AUDIO
    TITLE "3:cjc151_0721"
    INDEX 01 00:44:32
  TRACK 24 AUDIO
    TITLE "0:"
    INDEX 01 00:48:24
  TRACK 25 AUDIO
    TITLE "2:cjc151_0722"
    INDEX 01 00:50:03
  TRACK 26 AUDIO
    TITLE "0:"
    INDEX 01 00:51:09
  TRACK 27 AUDIO
    TITLE "3:cjc151_0723"
    INDEX 01 00:52:65
  TRACK 28 AUDIO
    TITLE "0:"
    INDEX 01 00:56:33
  TRACK 29 AUDIO
    TITLE "2:cjc151_0724"
    INDEX 01 00:58:13
  TRACK 30 AUDIO
    TITLE "0:"
    INDEX 01 00:59:20
  TRACK 31 AUDIO
    TITLE "3:cjc151_0725"
    INDEX 01 01:00:70
  TRACK 32 AUDIO
    TITLE "0:"
    INDEX 01 01:04:41
  TRACK 33 AUDIO
    TITLE "2:cjc151_0726"
    INDEX 01 01:06:20
  TRACK 34 AUDIO
    TITLE "0:"
    INDEX 01 01:07:17
  TRACK 35 AUDIO
    TITLE "3:cjc151_0727"
    INDEX 01 01:08:74
  TRACK 36 AUDIO
    TITLE "0:"
    INDEX 01 01:13:20
  TRACK 37 AUDIO
    TITLE "2:cjc151_0728"
    INDEX 01 01:14:74
  TRACK 38 AUDIO
    TITLE "0:"
    INDEX 01 01:16:32
  TRACK 39 AUDIO
    TITLE "3:cjc151_0729"
    INDEX 01 01:18:11
  TRACK 40 AUDIO
    TITLE "0:"
    INDEX 01 01:22:01
  TRACK 41 AUDIO
    TITLE "2:cjc151_0730"
    INDEX 01 01:23:58
  TRACK 42 AUDIO
    TITLE "0:"
    INDEX 01 01:24:67
  TRACK 43 AUDIO
    TITLE "3:cjc151_0731"
    INDEX 01 01:26:40
  TRACK 44 AUDIO
    TITLE "0:"
    INDEX 01 01:30:34
  TRACK 45 AUDIO
    TITLE "2:cjc151_0732"
    INDEX 01 01:32:12
  TRACK 46 AUDIO
    TITLE "0:"
    INDEX 01 01:33:15
  TRACK 47 AUDIO
    TITLE "3:cjc151_0733"
    INDEX 01 01:34:69
  TRACK 48 AUDIO
    TITLE "0:"
    INDEX 01 01:38:30
  TRACK 49 AUDIO
    TITLE "2:cjc151_0734"
    INDEX 01 01:40:05
  TRACK 50 AUDIO
    TITLE "0:"
    INDEX 01 01:41:18
  TRACK 51 AUDIO
    TITLE "3:cjc151_0735"
    INDEX 01 01:42:73
  TRACK 52 AUDIO
    TITLE "0:"
    INDEX 01 01:46:23
  TRACK 53 AUDIO
    TITLE "2:cjc151_0736"
    INDEX 01 01:48:05
  TRACK 54 AUDIO
    TITLE "0:"
    INDEX 01 01:49:10
  TRACK 55 AUDIO
    TITLE "3:cjc151_0737"
    INDEX 01 01:50:64
  TRACK 56 AUDIO
    TITLE "0:"
    INDEX 01 01:54:17
  TRACK 57 AUDIO
    TITLE "2:cjc151_0738"
    INDEX 01 01:55:71
  TRACK 58 AUDIO
    TITLE "0:"
    INDEX 01 01:57:02
  TRACK 59 AUDIO
    TITLE "3:cjc151_0739"
    INDEX 01 01:58:54
  TRACK 60 AUDIO
    TITLE "0:"
    INDEX 01 02:02:60
  TRACK 61 AUDIO
    TITLE "2:cjc151_0740"
    INDEX 01 02:04:43
  TRACK 62 AUDIO
    TITLE "0:"
    INDEX 01 02:05:58
  TRACK 63 AUDIO
    TITLE "3:cjc151_0741"
    INDEX 01 02:07:37
  TRACK 64 AUDIO
    TITLE "0:"
    INDEX 01 02:11:23
  TRACK 65 AUDIO
    TITLE "2:cjc151_0742"
    INDEX 01 02:13:03
  TRACK 66 AUDIO
    TITLE "0:"
    INDEX 01 02:14:10
  TRACK 67 AUDIO
    TITLE "3:cjc151_0743"
    INDEX 01 02:15:64
  TRACK 68 AUDIO
    TITLE "0:"
    INDEX 01 02:19:17
  TRACK 69 AUDIO
    TITLE "2:cjc151_0744"
    INDEX 01 02:20:69
  TRACK 70 AUDIO
    TITLE "0:"
    INDEX 01 02:21:71
  TRACK 71 AUDIO
    TITLE "3:cjc151_0745"
    INDEX 01 02:23:50
  TRACK 72 AUDIO
    TITLE "0:"
    INDEX 01 02:27:24
  TRACK 73 AUDIO
    TITLE "2:cjc151_0746"
    INDEX 01 02:29:06
  TRACK 74 AUDIO
    TITLE "0:"
    INDEX 01 02:30:07
  TRACK 75 AUDIO
    TITLE "3:cjc151_0747"
    INDEX 01 02:31:61
  TRACK 76 AUDIO
    TITLE "0:"
    INDEX 01 02:35:32
  TRACK 77 AUDIO
    TITLE "2:cjc151_0748"
    INDEX 01 02:37:09
  TRACK 78 AUDIO
    TITLE "0:"
    INDEX 01 02:38:14
  TRACK 79 AUDIO
    TITLE "3:cjc151_0749"
    INDEX 01 02:39:69
  TRACK 80 AUDIO
    TITLE "0:"
    INDEX 01 02:44:05
  TRACK 81 AUDIO
    TITLE "2:cjc151_0750"
    INDEX 01 02:45:59
  TRACK 82 AUDIO
    TITLE "0:"
    INDEX 01 02:47:00
  TRACK 83 AUDIO
    TITLE "3:cjc151_0751"
    INDEX 01 02:48:52
  TRACK 84 AUDIO
    TITLE "0:"
    INDEX 01 02:52:73
  TRACK 85 AUDIO
    TITLE "2:cjc151_0752"
    INDEX 01 02:54:53
  TRACK 86 AUDIO
    TITLE "0:"
    INDEX 01 02:55:60
  TRACK 87 AUDIO
    TITLE "3:cjc151_0753"
    INDEX 01 02:57:41
  TRACK 88 AUDIO
    TITLE "0:"
    INDEX 01 03:01:17
